<svg id="Group_1963" data-name="Group 1963" xmlns="http://www.w3.org/2000/svg" xmlns:xlink="http://www.w3.org/1999/xlink" width="52.34" height="52.34" viewBox="0 0 52.34 52.34">
  <defs>
    <clipPath id="clip-path">
      <rect id="Rectangle_470" data-name="Rectangle 470" width="52.34" height="52.34" fill="none"/>
    </clipPath>
  </defs>
  <g id="Group_1962" data-name="Group 1962" transform="translate(0 0)" clip-path="url(#clip-path)">
    <path id="Path_3643" data-name="Path 3643" d="M11.359,16.265A1.6,1.6,0,0,0,9.764,17.86v1.232a1.595,1.595,0,1,0,3.189,0V17.86a1.6,1.6,0,0,0-1.595-1.595" transform="translate(14.795 24.646)" fill="gray"/>
    <path id="Path_3644" data-name="Path 3644" d="M11.359,7.192A1.6,1.6,0,0,0,12.953,5.6V4.363a1.595,1.595,0,0,0-3.189,0V5.6a1.6,1.6,0,0,0,1.595,1.595" transform="translate(14.795 4.194)" fill="gray"/>
    <path id="Path_3645" data-name="Path 3645" d="M5.6,9.762H4.366a1.595,1.595,0,1,0,0,3.189H5.6a1.595,1.595,0,1,0,0-3.189" transform="translate(4.199 14.792)" fill="gray"/>
    <path id="Path_3646" data-name="Path 3646" d="M45.649,8.675a26.181,26.181,0,1,0-1.985,36.974A26.213,26.213,0,0,0,45.649,8.675M39.887,41.441a20.526,20.526,0,1,1,1.554-28.988,20.553,20.553,0,0,1-1.554,28.988" transform="translate(0 0)" fill="#eb0000"/>
    <path id="Path_3647" data-name="Path 3647" d="M19.1,9.762H17.863a1.595,1.595,0,1,0,0,3.189H19.1a1.595,1.595,0,0,0,0-3.189" transform="translate(24.65 14.792)" fill="gray"/>
    <path id="Path_3648" data-name="Path 3648" d="M17.29,19.465A2.5,2.5,0,0,1,14.8,16.973a2.364,2.364,0,0,1,.043-.445,1.077,1.077,0,0,0-.322-.971L6.168,7.714a.881.881,0,0,1-.04-1.243.882.882,0,0,1,1.243-.04l8.366,7.858a1.063,1.063,0,0,0,.732.289,1.2,1.2,0,0,0,.249-.028,2.432,2.432,0,0,1,.573-.07c.053,0,.106.005.161.008l.078.005a1.142,1.142,0,0,0,.729-.262l6.271-5.44a1.341,1.341,0,1,1,1.756,2.027L20.153,16.14a1.077,1.077,0,0,0-.372.812,2.5,2.5,0,0,1-2.49,2.513" transform="translate(8.926 9.387)" fill="gray"/>
  </g>
</svg>
