<svg xmlns="http://www.w3.org/2000/svg" width="62.035" height="50.703" viewBox="0 0 62.035 50.703">
  <g id="Group_1986" data-name="Group 1986" transform="translate(-0.25 -2.396)">
    <path id="Path_3659" data-name="Path 3659" d="M18.239,33.375a18.479,18.479,0,0,1-8.194-2.048l-7.426-4.1A5.028,5.028,0,0,1,.314,23.9,3.831,3.831,0,0,1,1.85,20.059L5.18,16.986h.512A122.085,122.085,0,0,1,31.3,14.425a122.086,122.086,0,0,1,25.608,2.561h.512l3.329,3.073A5.212,5.212,0,0,1,62.285,23.9a4.093,4.093,0,0,1-2.3,3.329l-7.426,4.1a18.48,18.48,0,0,1-8.195,2.048Z" transform="translate(0 19.725)" fill="#da2315"/>
    <path id="Path_3660" data-name="Path 3660" d="M20.218,28H9.975V4.957A2.419,2.419,0,0,1,12.536,2.4h5.121a2.419,2.419,0,0,1,2.561,2.561Z" transform="translate(15.947 0)" fill="#da2315"/>
    <path id="Path_3661" data-name="Path 3661" d="M20.14,5.521V22.262H22.7V4.854a25.576,25.576,0,0,1,10.243,0V22.262H35.5V5.521A25.71,25.71,0,0,1,53.43,29.944v1.344l-.256-.064c.256,0-9.731-2.561-25.352-2.561a125.97,125.97,0,0,0-25.23,2.4l-.378.075V29.944A25.709,25.709,0,0,1,20.14,5.521Z" transform="translate(3.221 3.181)" fill="#da2315" fill-rule="evenodd"/>
  </g>
</svg>
