<svg xmlns="http://www.w3.org/2000/svg" width="66.51" height="76.702" viewBox="0 0 66.51 76.702">
  <g id="Group_1936" data-name="Group 1936" transform="translate(-0.44)">
    <path id="Path_3615" data-name="Path 3615" d="M25.142,18.322,38.677,4.787,34.684.793,21.148,14.328v-7.3H15.5v14.12a2.824,2.824,0,0,0,2.824,2.824h14.12V18.322Z" transform="translate(28.273 -0.793)" fill="#da2315" fill-rule="evenodd"/>
    <path id="Path_3658" data-name="Path 3658" d="M0,26.762A26.762,26.762,0,1,1,26.762,53.524,26.762,26.762,0,0,1,0,26.762ZM20.964,15.834a2.23,2.23,0,0,0-2.23,2.23V25.87a2.23,2.23,0,0,0,1.891,2.2l9.706,1.493V33.23H23.194V31.669h-4.46V35.46a2.23,2.23,0,0,0,2.23,2.23h3.568v3.568h4.46V37.69h3.568a2.23,2.23,0,0,0,2.23-2.23V27.655a2.23,2.23,0,0,0-1.891-2.2l-9.706-1.493V20.295h7.137v1.561h4.46V18.065a2.23,2.23,0,0,0-2.23-2.23H28.993V12.266h-4.46v3.568Z" transform="translate(0.44 23.177)" fill="#da2315" fill-rule="evenodd"/>
  </g>
</svg>
