<svg id="Group_1968" data-name="Group 1968" xmlns="http://www.w3.org/2000/svg" xmlns:xlink="http://www.w3.org/1999/xlink" width="46.8" height="54.348" viewBox="0 0 46.8 54.348">
  <defs>
    <clipPath id="clip-path">
      <rect id="Rectangle_481" data-name="Rectangle 481" width="46.8" height="54.348" fill="#fff"/>
    </clipPath>
  </defs>
  <g id="Group_1969" data-name="Group 1969" transform="translate(0 0)" clip-path="url(#clip-path)">
    <path id="Path_3654" data-name="Path 3654" d="M44.524,16.43V4.425A2.193,2.193,0,0,0,46.8,2.213,2.193,2.193,0,0,0,44.524,0H2.276A2.413,2.413,0,0,0,0,2.213,2.413,2.413,0,0,0,2.276,4.425H2.6V16.43H2.276A2.413,2.413,0,0,0,0,18.643v.317a2.726,2.726,0,0,0,2.276,2.21H2.6V33.178H2.276A2.411,2.411,0,0,0,0,35.39,2.411,2.411,0,0,0,2.276,37.6H2.6V49.608H2.276A2.411,2.411,0,0,0,0,51.818v.317a2.725,2.725,0,0,0,2.276,2.213H44.524A2.408,2.408,0,0,0,46.8,52.136v-.317a2.191,2.191,0,0,0-2.276-2.21V37.6a2.212,2.212,0,1,0,0-4.423V21.17A2.407,2.407,0,0,0,46.8,18.96v-.317a2.193,2.193,0,0,0-2.276-2.213M23.239,39.251a9.648,9.648,0,0,1-9.651-9.59,9.531,9.531,0,0,1,.618-2.487l.025-.07c1.929-6.076,9.008-15.025,9.008-15.025s.486.614,1.234,1.617C26.6,16.552,30.9,22.609,32.568,27.1a9.716,9.716,0,0,1,.643,2.557,9.54,9.54,0,0,1-6.833,9.107,10.476,10.476,0,0,1-3.139.483" transform="translate(0 0)" fill="#fff"/>
  </g>
</svg>
